<svg xmlns="http://www.w3.org/2000/svg" width="32px" height="32px" viewBox="63 62 329.0942674 330.0942674" version="1.1" id="svg5" xml:space="preserve" data-square-offset-x="67.12632869999999" data-square-offset-y="67.0068987"><defs id="defs2" style="fill: rgb(0, 116, 204);"/><g id="layer1" style="fill: rgb(0, 116, 204);" transform="translate(453.0942674, 0) scale(-1, 1)"><path style="fill: rgb(0, 116, 204); stroke-width: 1;" d="m 214.73732870000077 385.63399869999967 c -1.956,-1.3984 -3.009,-3.8152 -3.63,-8.3264 -0.227,-1.6509 -0.428,-2.7885 -0.447,-2.5279 -0.191,2.6283 -1.125,7.0821 -1.758,8.3765 -2.823,5.7814 -9.513,1.8265 -10.948,-6.4729 l -0.409,-2.3631 -0.552,2.811 c -0.965,4.8999 -2.53,6.9978 -5.178,6.9405 -2.472,-0.054 -4.841,-2.346 -5.986,-5.7921 -0.469,-1.4136 -0.588,-1.522 -2.243,-2.0442 -4.587,-1.4458 -9.985,-4.7378 -14.572,-8.8871 -2.189,-1.9788 -2.41,-2.0943 -6.005,-3.1397 -12.359,-3.5921 -25.959,-9.1469 -34.108,-13.9295 -15.341,-9.0035 -22.219,-20.6433 -20.945,-35.4417 0.161,-1.8802 0.733,-5.9068 1.269,-8.9489 1.109,-6.2929 1.075,-8.2394 -0.185,-10.7261 -1.361,-2.6856 -3.92,-3.9845 -7.117,-3.6109 l -1.424,0.1666 1.477,-0.9594 c 4.382,-2.8432 10.086,-2.5628 13.103,0.645 1.083,1.152 2.01,2.7966 2.01,3.567 0,0.9262 0.48,0.4685 2.615,-2.4984 4.509,-6.2624 4.737,-9.1101 0.918,-11.4266 l -1.623,-0.9836 1.652,-0.1988 c 2.726,-0.327 5.559,-0.2302 6.654,0.2275 0.567,0.2365 2.09,1.3177 3.384,2.4007 5.336,4.4691 9.177,5.3819 14.462,3.4362 3.341,-1.2299 6.047,-5.1077 5.271,-7.5532 -0.388,-1.221 0.439,-0.3556 1.318,1.3804 1.814,3.5795 1.203,7.9985 -1.476,10.6831 -2.273,2.2771 -4.085,2.811 -10.738,3.1621 -12.198,0.6441 -14.482,1.5372 -16.881,6.5984 -0.957,2.0218 -0.973,2.1373 -0.973,6.954 0,12.1567 3.902,17.7168 18.602,26.5089 l 3.751,2.2431 -3.118,-3.2481 c -4.194,-4.3679 -4.946,-5.51 -5.107,-7.7531 -0.197,-2.7581 1.338,-4.2433 5.243,-5.071 1.831,-0.3879 6.34,-0.4739 7.953,-0.1514 l 1.016,0.2034 -1.442,0.8975 c -1.803,1.1225 -2.724,2.8191 -2.724,5.0191 0,2.0549 0.508,3.0072 2.649,4.9636 1.465,1.3392 7.342,4.7915 7.595,4.4619 0.04,-0.054 0,-1.522 -0.104,-3.2508 -0.8,-13.5524 2.69,-26.4588 12.902,-47.7024 1.607,-3.3421 2.499,-5.5583 2.383,-5.9211 -0.482,-1.5184 -4.283,-6.7014 -6.595,-8.9892 -3.495,-3.4613 -5.989,-4.7172 -9.343,-4.7056 -1.94,0 -2.667,0.1595 -3.957,0.834 -2.045,1.0696 -4.542,3.7301 -5.671,6.0412 -0.49,1.005 -0.928,1.7871 -0.972,1.7387 -0.05,-0.054 -0.463,-1.5013 -0.931,-3.2275 -1.312,-4.8417 -3.867,-12.5634 -5.601,-16.9295 -4.561,-11.4767 -8.874,-16.5684 -13.567,-16.013 -2.659,0.3153 -7.106,3.0743 -9.542,5.9202 l -1.101,1.2855 -0.385,-1.2057 c -3.567,-11.1517 -14.138,-14.2591 -22.875,-6.7247 -7.285,6.2839 -15.254,20.99 -21.141,39.0168 -0.795,2.4339 -1.656,5.0639 -1.913,5.8468 -0.99,3.0054 -0.561,-13.4359 0.617,-23.7016 3.934,-34.2709 18.729,-61.329 40.142,-73.4149 6.817,-3.8474 15.208,-6.1299 18.197,-4.9501 2.967,1.1699 4.126,2.7662 6.224,8.5637 0.849,2.346 2.043,5.2529 2.653,6.4595 5.637,11.1552 23.173,25.9213 42.035,35.3942 3.647,1.8319 4.979,2.3506 6.036,2.3506 2.839,0 4.699,-2.2484 7.882,-9.5213 l 2.024,-4.6241 -3.042,-1.005 c -6.621,-2.1875 -14.071,-6.4139 -18.535,-10.5148 -2.143,-1.9671 -2.273,-2.0343 -4.625,-2.3917 -6.923,-1.0499 -9.586,-4.0543 -11.27,-12.7085 -0.587,-3.0134 -1.041,-6.9522 -0.803,-6.9522 0.05,0 0.708,0.4309 1.456,0.9585 1.255,0.885 5.332,1.9537 5.773,1.513 0.08,-0.081 0,-1.2057 -0.155,-2.4966 -0.166,-1.2899 -0.299,-3.1272 -0.292,-4.083 v -1.7387 l 0.451,1.6725 c 1.179,4.3803 4.398,8.5431 8.113,10.4896 2.124,1.1135 2.121,1.0257 -0.03,-0.6217 -3.027,-2.3254 -8.578,-10.6088 -8.581,-12.8061 0,-0.3467 -0.439,-2.4079 -0.975,-4.5802 -2.522,-10.2361 -2.564,-18.4424 -0.132,-25.5907 l 0.782,-2.304 -1.096,-1.4933 c -0.603,-0.8223 -2.485,-2.7482 -4.182,-4.28 -12.24,-11.0495 -16.168,-16.6428 -15.833,-22.5568 0.152,-2.6856 0.749,-3.6458 2.966,-4.7656 7.201,-3.6378 22.941,4.5596 30.493,15.8796 2.428,3.6414 2.512,3.7202 1.253,1.1851 -1.66,-3.3412 -4.298,-7.0892 -6.996,-9.9405 l -2.528,-2.6703 1.087,-2.5064 c 4.128,-9.5276 13.136,-19.8829 21.674,-24.9199 l 1.389,-0.8205 -1.025,1.4924 c -6.198,9.008 -6.182,21.4047 0.04,28.0273 1.305,1.3893 1.435,1.4735 0.714,0.4604 -3.229,-4.5443 -3.161,-10.469 0.186,-16.1546 0.626,-1.0642 2.809,-3.5948 5.053,-5.8584 10.543,-10.6366 27.275,-17.6837 41.949,-17.6676 h 3.715 l -1.778,0.9021 c -9.566,4.8525 -16.813,15.8572 -17.998,27.3313 -0.177,1.7154 -0.261,3.1791 -0.187,3.2535 0.07,0.072 0.525,-1.0445 1.001,-2.4858 1.415,-4.2765 4.1,-9.0949 6.633,-11.8978 0.945,-1.0463 1.473,-1.3375 2.948,-1.6277 15.697,-3.094 27.793,-13.7655 27.992,-24.6941 l 0.04,-1.822 0.859,1.6455 c 2.097,4.0141 2.585,6.2464 2.602,11.9158 0.02,5.8288 -0.434,8.0934 -2.46,12.3475 -0.574,1.2039 -1.006,2.1884 -0.961,2.1884 0.04,0 0.907,-0.7301 1.917,-1.6223 1.009,-0.8931 3.861,-2.965 6.338,-4.6052 3.641,-2.4106 4.663,-3.2526 5.334,-4.3992 1.56,-2.6623 1.32,-5.5019 -0.687,-8.1302 -1.277,-1.6724 -1.245,-1.7172 0.58,-0.7963 4.236,2.1391 6.055,4.5067 6.024,7.8426 -0.03,3.2212 0.127,3.0591 -5.876,6.0815 -11.495,5.7858 -17.986,10.7234 -24.414,18.5723 -0.348,0.4246 0.505,-0.2168 1.896,-1.4243 5.651,-4.9071 12.581,-9.3681 20.857,-13.4252 19.367,-9.4962 29.324,-8.8566 26.07,1.6752 -1.448,4.6903 -7.503,11.6828 -12.639,14.5986 -7.518,4.2657 -10.552,7.4117 -13.238,13.7261 -1.167,2.7402 -1.108,3.2158 0.133,1.0731 2.321,-4.0086 6.354,-8.0352 10.538,-10.521 2.231,-1.3248 8.274,-3.8778 8.544,-3.6082 0.08,0.081 -0.367,0.6736 -0.992,1.3222 -2.843,2.9552 -5.872,7.9331 -6.357,10.4448 -0.612,3.1765 3.925,4.9958 10.659,4.2738 1.47,-0.1576 2.615,-0.1935 2.545,-0.081 -0.07,0.1147 -1.518,1.2469 -3.216,2.5181 -10.711,8.019 -15.751,13.8721 -16.826,19.5397 -0.528,2.7805 -0.371,2.8423 0.941,0.3691 2.296,-4.3267 4.802,-6.2463 10.113,-7.7512 3.192,-0.9048 7.345,-2.7143 9.339,-4.0696 0.667,-0.4515 1.263,-0.7695 1.327,-0.7059 0.175,0.1756 -2.047,10.0059 -3.115,13.7718 -1.448,5.1105 -2.769,7.6303 -5.306,10.1224 -2.001,1.9653 -6.049,4.7297 -6.925,4.7297 -0.921,0 -0.168,0.5787 2.548,1.9609 2.591,1.3195 6.555,4.3213 6.555,4.9653 0,0.1317 -0.889,0.4847 -1.974,0.7848 -11.102,3.0653 -24.763,19.6553 -28.831,35.0108 -1.104,4.1654 -2.11,10.6652 -2.168,14.0029 -0.05,3.198 0.452,4.5425 2.879,7.6124 2.672,3.3807 6.221,4.4225 10.66,3.1317 14.166,-4.1198 34.212,-16.2129 45.366,-27.3672 6.552,-6.5526 10.133,-12.2427 12.72,-20.2107 1.668,-5.14 2.031,-5.8682 3.655,-7.3346 2.055,-1.857 5.067,-1.969 10.154,-0.3781 19.573,6.12 32.395,24.5383 38.372,55.1123 2.451,12.5428 3.064,18.755 3.244,32.886 0.163,12.8519 -0.03,14.9803 -0.978,10.8471 -2.284,-9.9387 -6.763,-22.5048 -10.511,-29.4919 -7.465,-13.9151 -16.304,-18.3233 -23.753,-11.8441 -6.097,5.3031 -10.729,19.5272 -12.707,39.0213 -0.203,1.9985 -0.404,3.6718 -0.447,3.7175 -0.04,0.045 -0.338,-0.8779 -0.656,-2.054 -4.595,-16.9984 -13.75,-23.8288 -23.42,-17.4723 -5.567,3.6584 -13.237,14.4517 -17.996,25.3238 l -1.191,2.7205 -1.446,-1.1009 c -0.795,-0.6055 -2.085,-1.6312 -2.867,-2.2798 -0.782,-0.6476 -1.717,-1.332 -2.076,-1.521 -0.391,-0.2051 -1.342,-1.8364 -2.37,-4.0714 -4.616,-10.0274 -12.109,-22.4259 -16.579,-27.4369 l -0.847,-0.9487 0.575,0.9487 c 0.316,0.5213 1.349,2.2251 2.295,3.7873 8.129,13.4171 17.689,37.0748 22.096,54.6743 l 0.316,1.2648 0.04,-1.9089 c 0.07,-4.0884 -1.565,-13.6697 -3.18,-18.6323 -1.288,-3.9603 -1.244,-3.7337 -0.644,-3.2759 15.429,11.8064 21.286,20.6442 21.775,32.8547 0.453,11.3093 -4.173,22.3328 -13.38,31.8854 l -1.675,1.7388 2.562,2.054 c 1.409,1.1296 3.33,2.9579 4.27,4.0624 1.756,2.0657 4.824,7.5989 3.695,6.6655 -0.325,-0.2696 -1.132,-0.9468 -1.793,-1.5049 -4.673,-3.9504 -13.909,-5.5342 -19.993,-3.4282 -1.193,0.413 -1.076,0.4372 3.025,0.6172 6.14,0.2714 9.68,1.3777 14.393,4.4995 5.18,3.4309 9.915,9.6378 9.452,12.3896 -0.757,4.5103 -2.829,7.032 -5.779,7.0346 -1.902,0 -2.975,-1.1242 -3.793,-3.9799 -0.343,-1.1995 -0.766,-2.6793 -0.94,-3.2876 l -0.314,-1.1054 -0.04,0.9478 c -0.111,2.9104 -1.622,6.1961 -3.685,8.0119 -3.607,3.1755 -6.598,1.2209 -7.424,-4.8516 -0.189,-1.3902 -0.461,-2.9552 -0.604,-3.4765 -0.232,-0.8474 -0.263,-0.7803 -0.297,0.6324 -0.07,3.2078 -1.393,7.1958 -2.798,8.467 -2.036,1.8408 -5.922,0.093 -7.78,-3.5008 -0.644,-1.2451 -1.121,-4.134 -0.955,-5.7751 0.203,-1.9994 -0.33,-0.7677 -0.964,2.2305 -0.953,4.5031 -2.891,6.5204 -5.511,5.7357 -2.786,-0.8349 -4.771,-3.687 -5.409,-7.7763 -0.189,-1.2102 -0.256,-2.7259 -0.146,-3.3699 l 0.198,-1.1708 -1.683,-0.3279 c -0.925,-0.18 -2.891,-0.5589 -4.368,-0.842 -1.477,-0.2822 -5.573,-1.2326 -9.101,-2.1114 l -6.413,-1.5981 -3.417,1.6223 c -1.879,0.8922 -3.554,1.6223 -3.722,1.6223 -0.176,0 -0.296,1.3007 -0.285,3.0815 0.04,6.5983 -3.045,11.4553 -7.278,11.4553 -2.319,0 -4.5,-3.6083 -5.06,-8.372 -0.27,-2.2941 -0.75,-2.2314 -0.75,0.099 0,4.9456 -3.043,9.3708 -6.71,9.7551 -0.964,0.1012 -1.573,-0.018 -2.138,-0.4237 z m -27.219,-19.1519 c 2.234,-3.2105 5.686,-5.665 9.996,-7.1081 2.349,-0.7865 2.91,-0.8465 7.901,-0.8447 9.733,0 20.184,3.0251 27.237,7.874 l 2.152,1.4798 -1.422,-1.2989 c -4.679,-4.2747 -12.147,-8.1283 -19.104,-9.8581 -3.611,-0.8976 -11.48,-1.1511 -14.71,-0.4739 -6.837,1.4351 -12.437,6.4936 -14.052,12.6942 -0.709,2.7187 -0.564,3.1191 0.308,0.8537 0.418,-1.0875 1.181,-2.5808 1.694,-3.318 z m 52.203,-12.3341 c 3.193,-1.0892 5.505,-2.639 8.82,-5.9139 8.531,-8.4285 14.707,-22.7637 16.464,-38.2187 0.546,-4.8014 0.216,-17.2645 -0.611,-23.1265 -3.766,-26.6729 -11.601,-47.2105 -21.998,-57.6572 -10.981,-11.0342 -18.7,-5.4177 -20.322,14.7885 l -0.247,3.0717 1.432,0.1702 c 6.348,0.7515 9.333,1.4547 14.279,3.3619 3.096,1.194 3.08,1.3696 -0.04,0.5106 -3.209,-0.8815 -11.256,-0.9684 -13.935,-0.1505 l -1.769,0.5401 -0.205,3.5599 c -0.221,3.842 -0.281,11.303 -0.09,11.303 0.06,0 1.38,0.2186 2.923,0.4855 5.074,0.8779 9.249,3.3341 13.33,7.8417 2.335,2.579 2.505,3.1451 0.482,1.6008 -3.722,-2.8406 -8.009,-4.3876 -12.111,-4.3697 -4.707,0.018 -4.733,0.045 -4.774,4.1511 -0.02,1.8731 -0.125,4.2415 -0.237,5.2645 l -0.203,1.8588 -1.552,-3.4389 c -3.758,-8.3255 -9.43,-18.3582 -14.104,-24.9459 -2.748,-3.8742 -3.493,-4.6428 -1.897,-1.9572 2.126,3.5768 6.882,13.3839 10.97,22.6221 8.877,20.0548 11.73,24.5508 18.535,29.2116 5.056,3.4631 8.431,7.4547 8.431,9.9718 0,1.1646 -1.302,2.5011 -2.691,2.7617 l -1.04,0.1953 0.676,1.4709 c 0.532,1.16 0.677,2.0863 0.68,4.3669 0,2.7188 -0.05,2.9785 -0.958,4.2658 -2.374,3.3851 -8.234,4.0874 -11.46,1.3732 l -0.93,-0.7829 -0.149,1.7871 c -0.283,3.4111 -3.387,4.6518 -7.026,2.8092 l -1.517,-0.7686 0.208,1.7951 c 1.098,9.4837 7.475,18.4129 14.727,20.6192 1.707,0.5196 5.785,0.2992 7.918,-0.4282 z m 0.613,-57.5604 c -3.312,-1.7226 -8.822,-3.1917 -14.285,-3.8098 l -1.802,-0.2033 -0.658,-1.7585 c -0.361,-0.9674 -0.588,-1.8283 -0.504,-1.9134 0.218,-0.2167 4.345,0.8098 6.978,1.737 2.794,0.9826 8.316,3.8357 10.583,5.4678 1.943,1.3993 1.82,1.5883 -0.312,0.4802 z m -26.736,55.1857 c 1.46,-6.756 1.426,-15.8939 -0.08,-21.7631 -0.171,-0.6656 -0.471,-2.0146 -0.667,-2.9973 -0.293,-1.4664 -0.49,-1.8202 -1.101,-1.9743 -0.409,-0.1021 -0.996,-0.2831 -1.302,-0.4004 -0.436,-0.1675 -0.513,-0.095 -0.352,0.3261 0.827,2.1552 2.356,17.1336 2.497,24.4531 0.05,2.6497 0.178,4.8184 0.283,4.8193 0.106,0 0.431,-1.1072 0.724,-2.4634 z m -42.817,-0.4452 c -4.433,-5.9785 -5.979,-10.9071 -5.968,-19.0148 0.02,-10.8292 3.933,-24.6269 9.636,-33.9297 1.415,-2.3102 0.626,-1.47 -1.405,1.496 -11.41,16.658 -14.234,31.1993 -8.48,43.6525 1.194,2.5852 7.241,10.3902 8.05,10.3902 0.05,0 -0.775,-1.1672 -1.833,-2.5942 z m 25.576,-42.2004 c -9.752,-9.5285 -14.126,-17.0441 -16.37,-28.1286 -2.219,-10.9572 -0.213,-24.5642 5.167,-35.0511 0.94,-1.8328 1.525,-3.1389 1.3,-2.9024 -2.201,2.3156 -7.556,12.6852 -8.816,17.0692 -5.434,18.9306 -1.184,34.7995 12.317,45.9815 1.575,1.3052 10.257,7.3123 10.626,7.3526 0.123,0.018 -1.778,-1.9313 -4.224,-4.3212 z m 72.115,-1.5802 c 0.208,-0.6512 0.798,-1.6285 1.31,-2.1705 0.918,-0.9692 0.927,-1.014 0.589,-2.8441 -0.371,-2.003 -1.791,-7.6894 -1.965,-7.8623 -0.05,-0.054 -0.131,1.8382 -0.164,4.2129 -0.04,2.3756 -0.154,5.5637 -0.271,7.0838 -0.228,2.9955 -0.09,3.4336 0.501,1.5802 z m -94.975,-60.2935 c -12.449,-4.392 -25.668,-15.214 -36.846,-30.1655 -1.494,-1.9985 -3.32,-4.5936 -4.057,-5.7671 -0.737,-1.1726 -1.406,-2.1329 -1.484,-2.1329 -0.146,0 -0.03,0.2231 3.378,6.1621 10.06,17.5547 21.751,27.6708 36.725,31.7771 4.012,1.1 5.235,1.1672 2.284,0.1263 z m 122.771,-8.8199 c 14.007,-2.965 26.772,-14.44 37.983,-34.1437 2.016,-3.5419 7.625,-14.6945 7.39,-14.6945 -0.06,0 -0.675,0.8887 -1.364,1.9752 -5.229,8.2493 -6.619,10.3553 -9.23,13.9832 -8.531,11.8495 -16.52,19.9617 -25.456,25.8443 -5.157,3.3951 -8.892,5.072 -15.011,6.739 l -3.95,1.0759 3.635,-0.1389 c 1.998,-0.072 4.7,-0.3637 6.003,-0.6405 z m -80.425,-19.1501 c 8.357,-0.7202 17.01,-3.1495 24.835,-6.971 11.91,-5.8154 19.76,-13.357 25.711,-24.6994 1.495,-2.8486 4.605,-10.2138 4.595,-10.8847 0,-0.1362 -1.136,2.028 -2.52,4.8086 -6.995,14.0539 -18.276,23.8861 -35.24,30.7173 -8.85,3.5634 -21.454,6.4138 -28.359,6.4138 -3.211,0 -3.014,0.275 0.436,0.6074 3.861,0.3726 6.289,0.3744 10.542,0 z m -2.686,-2.9148 c 10.144,-2.6525 15.518,-8.7062 16.252,-18.309 l 0.176,-2.3022 -0.613,2.2744 c -2.188,8.1275 -7.337,12.9137 -16.674,15.498 -2.831,0.7838 -3.555,0.8546 -8.622,0.8412 -6.27,-0.018 -8.784,-0.5089 -12.772,-2.4984 -1.207,-0.602 -2.265,-1.0239 -2.352,-0.9379 -0.388,0.3888 3.268,3.3583 5.381,4.3697 3.553,1.7011 5.934,2.1095 11.482,1.9689 3.75,-0.095 5.367,-0.284 7.742,-0.9047 z m -9.054,-11.0191 c -2.458,-4.6993 -6.867,-8.802 -9.46,-8.802 -1.119,0 -2.132,1.0311 -2.132,2.1696 0,1.616 1.356,2.7608 3.978,3.3574 3.613,0.8214 6.513,2.7492 8.17,5.4303 1.312,2.1239 0.953,0.7273 -0.556,-2.1553 z m 3.478,1.3105 c 1.169,-3.1218 3.973,-5.7536 7.542,-7.0767 2.72,-1.0086 3.92,-3.4693 2.423,-4.9671 -2.698,-2.6981 -8.982,4.3025 -10.483,11.6766 -0.509,2.501 -0.329,2.6282 0.518,0.3672 z m -42.409,-10.0166 c -0.345,-0.6763 -0.948,-2.3335 -1.34,-3.6826 -0.763,-2.6255 -0.981,-2.8513 -3.054,-3.1675 -1.596,-0.2445 -1.595,-0.2517 -0.426,2.622 1.169,2.8727 2.19,4.1994 3.87,5.0307 1.65,0.817 1.738,0.7426 0.95,-0.8026 z m 14.98,-8.9821 c 0.772,-0.1943 1.402,-0.4425 1.399,-0.5527 0,-0.1092 -0.891,-0.5347 -1.975,-0.945 -2.799,-1.0588 -4.669,-2.3255 -6.808,-4.6124 -2.633,-2.8137 -3.376,-4.4628 -3.389,-7.5121 0,-2.2824 -0.07,-2.5091 -0.978,-3.4765 -0.533,-0.5688 -1.381,-1.5927 -1.886,-2.2753 l -0.918,-1.2416 -0.227,1.8731 c -0.288,2.3765 0.22,6.9343 1.047,9.3888 2.221,6.592 8.29,10.7252 13.735,9.3537 z m 5.489,-4.5559 c -1.523,-10.8086 -5.88,-17.1857 -13.601,-19.9097 -1.61,-0.568 -1.552,-0.3942 0.215,0.6404 1.975,1.1574 5.61,4.6438 7.245,6.9487 2.392,3.3717 5.115,9.5902 5.998,13.6983 0.383,1.779 0.47,0.9406 0.143,-1.3777 z m -11.346,-6.0009 c 2.002,-2.1311 -0.173,-6.4084 -2.794,-5.4947 -1.906,0.6646 -2.114,3.6539 -0.375,5.3926 1.113,1.1126 2.188,1.1475 3.169,0.1021 z m 70.377,-0.4721 c 6.88,-3.438 9.721,-12.3609 5.972,-18.7577 -1.189,-2.0281 -2.727,-3.2374 -4.643,-3.6476 -1.894,-0.4067 -2.187,-0.275 -1.563,0.7005 4.411,6.8886 4.083,14.0396 -0.919,20.0799 -2.497,3.0143 -2.269,3.335 1.153,1.6249 z m -10.316,-8.827 c 1.598,-10.6814 5.71,-16.9151 12.768,-19.3553 0.871,-0.3018 1.288,-0.5527 0.926,-0.558 -2.439,-0.036 -7.379,2.5377 -9.823,5.1221 -4.221,4.4628 -5.612,9.4254 -4.987,17.7912 l 0.259,3.4631 0.252,-2.0541 c 0.139,-1.1296 0.411,-3.1137 0.605,-4.409 z m 8.994,-1.4225 c 1.612,-1.6124 0.723,-4.4637 -1.633,-5.2422 -2.215,-0.7309 -3.892,1.6277 -2.797,3.9343 0.968,2.0424 3.074,2.6641 4.43,1.3079 z m 38.561,-7.47 c 3.225,-1.3428 6.172,-4.0651 7.679,-7.0919 0.919,-1.8462 3.202,-8.0603 3.202,-8.7142 0,-0.2562 -3.911,1.2039 -6.485,2.4213 -1.938,0.9173 -4.252,3.0206 -5.066,4.6052 -0.476,0.9263 -0.354,0.851 0.927,-0.5679 1.498,-1.6608 3.627,-2.948 4.878,-2.948 0.897,0 0.916,1.0973 0.07,3.8384 -1.086,3.5142 -3.242,6.24 -6.785,8.5754 -2.096,1.3822 -2.007,1.375 1.581,-0.1183 z" id="path68"/></g></svg>